<svg width="28" height="36" viewBox="0 0 28 36" fill="none" xmlns="http://www.w3.org/2000/svg">
<path d="M14 0C10.2883 0.00442346 6.72991 1.49589 4.10535 4.14723C1.48079 6.79857 0.00439367 10.3933 1.48946e-05 14.1429C-0.0044306 17.207 0.986353 20.188 2.82038 22.6286C2.82038 22.6286 3.20219 23.1364 3.26456 23.2097L14 36L24.7405 23.2033C24.7965 23.1351 25.1796 22.6286 25.1796 22.6286L25.1809 22.6247C27.014 20.1852 28.0043 17.2056 28 14.1429C27.9956 10.3933 26.5192 6.79857 23.8946 4.14723C21.2701 1.49589 17.7117 0.00442346 14 0ZM14 19.2857C12.9931 19.2857 12.0088 18.9841 11.1716 18.419C10.3345 17.8539 9.68194 17.0507 9.29662 16.1109C8.9113 15.1712 8.81048 14.1372 9.00692 13.1395C9.20335 12.1419 9.68821 11.2255 10.4002 10.5063C11.1122 9.78707 12.0193 9.29726 13.0068 9.09882C13.9944 8.90038 15.018 9.00222 15.9482 9.39148C16.8784 9.78073 17.6735 10.4399 18.2329 11.2856C18.7923 12.1314 19.0909 13.1257 19.0909 14.1429C19.0892 15.5063 18.5523 16.8134 17.598 17.7775C16.6436 18.7416 15.3497 19.284 14 19.2857Z" fill="#2B2A28"/>
</svg>
